<?xml version="1.0" standalone="no"?>
<!DOCTYPE svg PUBLIC "-//W3C//DTD SVG 20010904//EN"
 "http://www.w3.org/TR/2001/REC-SVG-20010904/DTD/svg10.dtd">
<svg version="1.0" xmlns="http://www.w3.org/2000/svg"
 width="1024.000000pt" height="1024.000000pt" viewBox="0 0 1024.000000 1024.000000"
 preserveAspectRatio="xMidYMid meet">

<g transform="translate(0.000000,1024.000000) scale(0.100000,-0.100000)"
fill="#000000" stroke="none">
<path d="M3498 8422 c-47 -28 -58 -67 -58 -200 0 -116 -1 -120 -22 -125 -13
-3 -124 -6 -248 -6 -124 0 -248 -4 -276 -10 -239 -47 -440 -210 -529 -428 -57
-142 -55 -34 -55 -2502 0 -2423 0 -2393 49 -2533 117 -336 399 -530 811 -559
174 -12 3754 -11 3905 1 157 13 268 41 390 100 268 130 424 355 455 658 8 75
10 778 8 2382 l-4 2275 -21 75 c-45 159 -114 269 -229 364 -85 70 -176 118
-289 151 -86 26 -101 27 -332 28 l-243 1 -1 116 c0 135 -12 176 -58 207 -40
27 -82 29 -121 6 -52 -30 -62 -64 -58 -200 2 -95 0 -124 -10 -128 -8 -3 -191
-5 -408 -5 l-394 0 0 120 c0 139 -12 179 -62 210 -42 26 -88 25 -122 -1 -44
-35 -51 -57 -56 -194 l-5 -130 -400 0 -400 0 -5 135 c-5 146 -13 171 -60 195
-54 28 -125 10 -152 -38 -8 -13 -15 -75 -18 -157 l-5 -135 -380 -3 c-209 -1
-390 0 -402 3 -22 5 -23 9 -23 131 0 140 -10 173 -60 199 -38 20 -78 19 -112
-3z m972 -526 c0 -12 -9 -31 -21 -42 -35 -31 -49 -70 -49 -131 0 -40 6 -68 20
-90 11 -18 22 -33 25 -33 2 0 -4 15 -15 33 -14 21 -20 50 -20 87 0 37 6 66 20
88 25 40 45 43 36 5 -20 -81 -18 -127 6 -162 48 -70 144 -92 209 -48 61 40 84
120 58 196 -16 46 -6 47 25 3 30 -44 34 -102 11 -158 -8 -19 -10 -32 -5 -29 4
3 16 25 25 50 25 64 14 128 -31 173 -20 20 -34 44 -34 58 l0 24 390 0 390 0 0
-22 c0 -12 -14 -37 -31 -54 -57 -59 -57 -179 -1 -241 15 -16 22 -22 16 -14
-48 67 -59 162 -24 219 25 40 45 43 36 5 -20 -81 -18 -127 6 -163 63 -94 199
-92 259 2 16 26 19 44 15 88 -2 30 -8 66 -12 80 l-7 25 25 -25 c56 -55 54
-162 -5 -230 -12 -14 -8 -12 10 6 69 70 69 189 -1 253 -14 14 -26 35 -26 48
l0 23 395 0 395 0 0 -24 c0 -14 -10 -30 -24 -39 -71 -47 -74 -186 -5 -260 l30
-32 -32 47 c-27 39 -32 57 -33 105 -1 41 5 68 19 92 27 46 50 54 41 15 -4 -16
-10 -54 -12 -84 -5 -47 -2 -60 18 -90 65 -97 201 -91 256 11 24 44 25 89 6
157 -11 39 16 24 36 -20 25 -55 25 -108 1 -159 -21 -43 -9 -44 13 -1 36 71 27
147 -24 206 -17 18 -30 43 -30 55 0 21 2 21 236 21 257 0 309 -7 414 -58 118
-58 237 -204 268 -332 14 -55 24 -4469 11 -4655 -14 -204 -73 -344 -193 -452
-104 -94 -219 -148 -388 -180 -87 -17 -210 -18 -2063 -18 -2182 0 -2037 -4
-2202 64 -166 68 -275 166 -343 306 -81 167 -74 -70 -77 2530 -3 1692 -1 2336
7 2380 27 145 129 285 256 352 106 57 150 63 431 63 l253 0 0 -23 c0 -13 -9
-32 -21 -43 -34 -31 -50 -72 -50 -129 0 -51 19 -106 41 -120 6 -4 2 8 -10 27
-25 42 -27 120 -2 167 24 49 48 55 36 10 -26 -104 -3 -176 67 -211 128 -66
261 61 209 198 -7 18 -7 31 -1 37 7 7 13 4 18 -9 4 -10 13 -25 20 -32 16 -16
17 -109 2 -149 -5 -15 -22 -41 -37 -58 l-27 -30 29 25 c81 70 87 201 12 269
-15 14 -26 35 -26 50 l0 26 390 -3 390 -2 0 -24z"/>
<path d="M4739 7583 c-13 -16 -12 -17 4 -4 16 13 21 21 13 21 -2 0 -10 -8 -17
-17z"/>
<path d="M6454 3568 l-19 -23 23 19 c12 11 22 21 22 23 0 8 -8 2 -26 -19z"/>
<path d="M6302 2930 c0 -19 2 -27 5 -17 2 9 2 25 0 35 -3 9 -5 1 -5 -18z"/>
<path d="M6301 2834 c0 -11 3 -14 6 -6 3 7 2 16 -1 19 -3 4 -6 -2 -5 -13z"/>
<path d="M3008 2413 c6 -2 18 -2 25 0 6 3 1 5 -13 5 -14 0 -19 -2 -12 -5z"/>
<path d="M3123 2403 c9 -2 23 -2 30 0 6 3 -1 5 -18 5 -16 0 -22 -2 -12 -5z"/>
<path d="M4023 2403 c15 -2 37 -2 50 0 12 2 0 4 -28 4 -27 0 -38 -2 -22 -4z"/>
<path d="M4148 2403 c6 -2 18 -2 25 0 6 3 1 5 -13 5 -14 0 -19 -2 -12 -5z"/>
<path d="M4298 2403 c7 -3 16 -2 19 1 4 3 -2 6 -13 5 -11 0 -14 -3 -6 -6z"/>
<path d="M4503 2403 c15 -2 39 -2 55 0 15 2 2 4 -28 4 -30 0 -43 -2 -27 -4z"/>
<path d="M4592 2405 c6 -7 949 -7 956 0 3 3 -212 5 -478 5 -266 0 -481 -2
-478 -5z"/>
<path d="M5758 2383 c7 -3 16 -2 19 1 4 3 -2 6 -13 5 -11 0 -14 -3 -6 -6z"/>
<path d="M5828 2383 c7 -3 16 -2 19 1 4 3 -2 6 -13 5 -11 0 -14 -3 -6 -6z"/>
<path d="M5958 2363 c6 -2 18 -2 25 0 6 3 1 5 -13 5 -14 0 -19 -2 -12 -5z"/>
<path d="M6123 2363 c9 -2 25 -2 35 0 9 3 1 5 -18 5 -19 0 -27 -2 -17 -5z"/>
</g>
</svg>
